<svg width="32" height="32" viewBox="0 0 32 32" fill="none" xmlns="http://www.w3.org/2000/svg">
  <rect x="0.5" y="0.5" width="31" height="31" rx="6" fill="#7054AA"/>
  <rect x="0.5" y="0.5" width="31" height="31" rx="6" stroke="#7054AA"/>
  <path d="M16 9C13.2386 9 11 11.2386 11 14C11 16.7614 13.2386 19 16 19C18.7614 19 21 16.7614 21 14C21 11.2386 18.7614 9 16 9Z" stroke="#FFF8F2" stroke-width="1.5" stroke-linecap="round" stroke-linejoin="round"/>
  <path d="M16 9V19" stroke="#FFF8F2" stroke-width="1.5" stroke-linecap="round"/>
  <path d="M12.5 10C12.5 10 11.5 11 11.5 12.5C11.5 14 12.5 15 12.5 15" stroke="#FFF8F2" stroke-width="1.5" stroke-linecap="round"/>
  <path d="M19.5 10C19.5 10 20.5 11 20.5 12.5C20.5 14 19.5 15 19.5 15" stroke="#FFF8F2" stroke-width="1.5" stroke-linecap="round"/>
  <path d="M14 11C14 11 13 12 13 13C13 14 14 15 14 15" stroke="#FFF8F2" stroke-width="1.5" stroke-linecap="round"/>
  <path d="M18 11C18 11 19 12 19 13C19 14 18 15 18 15" stroke="#FFF8F2" stroke-width="1.5" stroke-linecap="round"/>
</svg>
