<svg width="32" height="32" viewBox="0 0 32 32" fill="none" xmlns="http://www.w3.org/2000/svg">
  <rect x="0.5" y="0.5" width="31" height="31" rx="6" fill="#7054AA"/>
  <rect x="0.5" y="0.5" width="31" height="31" rx="6" stroke="#7054AA"/>
  <path d="M12.5 12C12.5 9.79086 14.2909 8 16.5 8C18.7091 8 20.5 9.79086 20.5 12C20.5 14.2091 18.7091 16 16.5 16C14.2909 16 12.5 14.2091 12.5 12Z" stroke="#FFF8F2" stroke-width="1.5" stroke-linecap="round" stroke-linejoin="round"/>
  <path d="M16.5 8V16" stroke="#FFF8F2" stroke-width="1.5" stroke-linecap="round"/>
  <path d="M10 11C10 9.34315 11.3431 8 13 8" stroke="#FFF8F2" stroke-width="1.5" stroke-linecap="round"/>
  <path d="M23 11C23 9.34315 21.6569 8 20 8" stroke="#FFF8F2" stroke-width="1.5" stroke-linecap="round"/>
  <path d="M10 13C10 14.6569 11.3431 16 13 16" stroke="#FFF8F2" stroke-width="1.5" stroke-linecap="round"/>
  <path d="M23 13C23 14.6569 21.6569 16 20 16" stroke="#FFF8F2" stroke-width="1.5" stroke-linecap="round"/>
  <text x="16" y="27" font-family="Barlow, Montserrat, sans-serif" font-size="10" font-weight="bold" fill="#FFF8F2" text-anchor="middle" alignment-baseline="baseline">EP</text>
</svg>
