<svg xmlns="http://www.w3.org/2000/svg" viewBox="0 0 32 32">
  <rect width="32" height="32" rx="5" fill="#7054AA"/>
  <!-- Left hemisphere -->
  <path d="M15.5 5.5C12.5 5.5 10 7 9 9C7.5 9 6 10.5 6 12C6 13.2 6.8 14.2 7.8 14.6C7.8 16.5 9.2 18 11 18C12.3 18 13.4 17.2 14 16.2C14.4 16.6 14.9 17 15.5 17.2V5.5Z"
    fill="none" stroke="#FFF8F2" stroke-width="1.3" stroke-linejoin="round" stroke-linecap="round"/>
  <!-- Right hemisphere -->
  <path d="M16.5 5.5C19.5 5.5 22 7 23 9C24.5 9 26 10.5 26 12C26 13.2 25.2 14.2 24.2 14.6C24.2 16.5 22.8 18 21 18C19.7 18 18.6 17.2 18 16.2C17.6 16.6 17.1 17 16.5 17.2V5.5Z"
    fill="none" stroke="#FFF8F2" stroke-width="1.3" stroke-linejoin="round" stroke-linecap="round"/>
  <!-- Center divider -->
  <line x1="16" y1="6" x2="16" y2="17.5" stroke="#FFF8F2" stroke-width="1"/>
  <!-- EP -->
  <text x="16" y="28.5" font-family="Arial, sans-serif" font-weight="800" font-size="9.5" fill="#FFF8F2" text-anchor="middle" letter-spacing="0.5">EP</text>
</svg>
